<?xml version="1.0" standalone="no"?>
<!DOCTYPE svg PUBLIC "-//W3C//DTD SVG 20010904//EN"
 "http://www.w3.org/TR/2001/REC-SVG-20010904/DTD/svg10.dtd">
<svg version="1.0" xmlns="http://www.w3.org/2000/svg"
 width="811.000000pt" height="847.000000pt" viewBox="0 0 811.000000 847.000000"
 preserveAspectRatio="xMidYMid meet">
<metadata>
Created by potrace 1.16, written by Peter Selinger 2001-2019
</metadata>
<g transform="translate(0.000000,847.000000) scale(0.100000,-0.100000)"
fill="#000000" stroke="none">
<path d="M4377 7813 c-4 -7 -13 -10 -20 -7 -7 2 -13 -4 -14 -16 -1 -14 4 -20
20 -20 13 0 18 -3 11 -10 -5 -5 -20 -7 -32 -3 -17 4 -21 10 -17 24 6 17 1 19
-47 19 -47 -1 -51 -2 -35 -14 14 -11 15 -15 5 -20 -7 -3 1 -3 18 -1 23 4 35 0
50 -16 10 -12 13 -19 7 -15 -7 4 -36 9 -64 11 -57 4 -71 11 -49 25 12 8 10 10
-7 10 -12 0 -24 -4 -27 -9 -3 -5 -29 -7 -58 -5 -29 2 -82 6 -118 8 -36 3 -76
8 -90 11 -24 7 -24 6 5 -19 17 -14 40 -25 53 -26 26 0 30 -20 5 -20 -10 -1
-29 -7 -43 -16 l-25 -15 25 7 c16 3 5 -7 -29 -29 -44 -30 -57 -34 -78 -26 -16
6 -38 6 -58 0 -19 -5 -36 -7 -39 -4 -3 3 -26 -2 -52 -11 -26 -9 -61 -17 -78
-17 l-31 -2 28 -4 c40 -6 28 -27 -18 -31 -29 -3 -36 0 -32 11 4 11 -5 13 -46
10 -29 -3 -58 -7 -66 -9 -27 -9 0 -18 47 -16 26 1 54 -2 62 -8 13 -10 13 -11
0 -9 -8 1 -24 0 -35 -1 -17 -2 -17 -3 5 -10 18 -6 20 -8 7 -9 -10 -1 -27 4
-38 10 -15 7 -24 7 -34 -1 -7 -6 -32 -10 -56 -10 -73 1 -87 0 -114 -10 -15 -6
-23 -14 -20 -20 3 -5 -3 -10 -14 -10 -10 0 -21 5 -23 12 -3 8 -19 5 -51 -11
-26 -13 -49 -26 -52 -31 -2 -4 -37 -27 -77 -51 -40 -23 -98 -62 -128 -86 -147
-114 -182 -143 -174 -143 5 0 -2 -10 -14 -22 -49 -49 -122 -133 -122 -140 0
-11 28 -10 51 3 17 9 19 8 11 -8 -6 -10 -29 -60 -53 -112 -37 -82 -43 -104
-44 -170 -3 -131 -4 -137 -35 -182 -39 -58 -39 -83 1 -33 40 51 39 50 39 32 0
-8 -10 -26 -23 -39 -20 -21 -55 -84 -59 -106 -1 -5 -13 -14 -27 -21 -15 -7
-32 -22 -40 -35 -11 -17 -11 -19 0 -9 7 6 17 12 22 12 4 0 5 -6 1 -12 -8 -14
46 30 58 47 4 5 9 7 13 4 3 -3 -18 -30 -46 -59 -28 -29 -44 -50 -34 -46 15 5
14 2 -4 -30 -12 -19 -17 -32 -11 -29 5 3 10 -1 10 -9 0 -22 27 -10 63 28 16
17 25 24 18 15 -6 -9 -8 -18 -5 -22 3 -3 0 -15 -6 -28 -11 -19 -10 -21 5 -16
9 4 21 7 27 7 6 0 8 9 5 20 -7 26 8 36 19 12 7 -17 15 -77 14 -117 -1 -61 -8
-144 -14 -153 -9 -15 21 -78 48 -100 27 -21 28 -27 27 -116 -1 -32 4 -65 10
-72 6 -8 8 -14 4 -14 -4 0 -3 -6 2 -12 18 -24 21 -57 8 -95 -10 -29 -10 -52
-3 -93 6 -30 11 -65 12 -77 0 -13 5 -23 10 -23 5 0 4 -6 -3 -13 -8 -10 -7 -17
1 -25 8 -8 9 -12 1 -12 -21 0 -22 -28 -2 -49 24 -25 18 -41 -12 -34 -38 10
-41 -19 -7 -54 18 -18 26 -33 19 -33 -7 0 -9 -4 -6 -10 3 -5 1 -10 -4 -10 -14
0 -14 -37 -1 -45 5 -3 6 -13 3 -22 -5 -13 -2 -15 11 -10 16 6 17 3 11 -30 -3
-21 -11 -42 -16 -47 -18 -19 -10 -122 16 -191 33 -86 59 -138 80 -155 9 -8 27
-35 40 -60 30 -59 53 -80 65 -60 7 11 11 8 19 -13 6 -15 16 -26 23 -25 36 8
-37 -516 -93 -677 -55 -155 -109 -195 -268 -195 -113 0 -135 -8 -280 -104
-101 -67 -330 -165 -298 -128 12 15 13 76 6 427 -4 226 -10 464 -13 530 -3 66
-8 233 -11 370 -3 138 -7 309 -10 380 -3 72 -7 238 -10 370 -7 309 -14 583
-20 815 -3 102 -10 415 -16 695 -6 281 -12 511 -13 512 -9 10 -273 -222 -417
-366 -262 -263 -467 -532 -645 -846 -126 -224 -249 -503 -239 -545 4 -18 3
-21 -4 -10 -11 16 -8 21 -36 -59 -8 -24 -12 -47 -9 -53 3 -5 -2 -18 -11 -28
-10 -11 -18 -33 -19 -49 -1 -17 -7 -36 -13 -42 -8 -8 -10 -28 -6 -57 5 -36 3
-48 -11 -57 -9 -7 -16 -17 -15 -21 3 -20 -2 -35 -10 -30 -5 3 -12 -10 -15 -30
-4 -19 -10 -42 -13 -50 -3 -10 2 -14 18 -15 23 -1 23 -1 -3 -11 -16 -5 -28
-14 -28 -19 0 -4 7 -6 15 -3 8 4 15 2 15 -4 0 -6 -6 -13 -12 -15 -10 -4 -10
-6 -1 -6 7 -1 10 -8 7 -16 -4 -9 0 -15 10 -15 9 0 16 5 16 10 0 6 5 10 11 10
6 0 8 -8 4 -19 -3 -11 -1 -23 6 -27 8 -4 4 -11 -12 -21 l-24 -14 29 6 c26 5
27 4 13 -10 -21 -20 -54 -19 -60 3 -4 14 -6 14 -12 -5 -4 -13 -11 -21 -15 -18
-13 8 -23 -16 -12 -27 6 -6 8 -17 5 -24 -4 -10 0 -12 11 -8 11 4 16 0 16 -12
1 -17 2 -17 19 3 14 16 21 19 30 10 8 -8 11 -8 11 0 0 7 -4 15 -10 18 -12 8
-13 25 -2 25 5 0 19 -9 32 -20 19 -17 20 -20 6 -20 -9 0 -14 -4 -11 -10 3 -5
1 -10 -4 -10 -6 0 -11 -7 -11 -15 0 -8 8 -15 18 -15 14 0 15 -2 2 -10 -21 -14
-30 -12 -30 5 0 19 -16 19 -24 0 -3 -8 0 -15 6 -15 6 0 4 -8 -5 -18 -10 -10
-17 -27 -17 -37 0 -14 -3 -15 -15 -5 -13 11 -15 8 -15 -20 0 -24 -4 -31 -15
-26 -8 3 -15 1 -15 -4 0 -6 9 -10 20 -10 13 0 20 7 20 20 0 11 5 20 10 20 6 0
10 -9 10 -20 0 -11 5 -20 10 -20 6 0 10 8 10 19 0 13 7 19 25 19 25 0 25 -1 8
-22 -26 -30 -35 -36 -60 -36 -14 0 -23 -6 -23 -15 0 -8 8 -15 18 -15 36 0 62
13 62 30 0 10 7 20 15 24 16 6 20 41 6 51 -5 3 -12 1 -16 -5 -8 -13 -25 -3
-25 14 0 7 14 12 35 13 42 1 65 -26 40 -47 -8 -7 -15 -23 -15 -36 0 -14 -5
-23 -12 -21 -7 1 -17 -8 -23 -20 -7 -18 -19 -23 -50 -24 l-40 -1 45 -11 c42
-9 43 -11 20 -18 -20 -7 -17 -8 13 -4 20 2 37 0 37 -6 0 -5 -7 -9 -15 -9 -10
0 -15 -10 -15 -31 0 -17 4 -28 10 -24 5 3 12 -5 16 -19 5 -23 8 -24 21 -10 9
8 18 13 20 10 9 -9 -21 -65 -38 -69 -9 -2 -15 -13 -14 -23 2 -34 14 -44 45
-37 23 4 30 2 30 -10 0 -11 -9 -13 -43 -10 -43 5 -43 5 -60 -39 -9 -24 -17
-52 -17 -62 0 -13 -5 -16 -22 -11 -14 4 -18 3 -11 -2 6 -5 17 -21 23 -37 9
-23 13 -26 25 -16 13 10 15 8 15 -14 0 -14 -4 -26 -10 -26 -5 0 -10 -7 -10
-16 0 -10 6 -14 14 -11 10 4 13 1 9 -9 -3 -8 1 -14 11 -14 10 0 16 -9 16 -25
0 -14 5 -25 10 -25 6 0 10 -7 10 -16 0 -12 6 -15 24 -10 15 4 28 0 36 -9 10
-12 10 -15 -1 -16 -8 -1 -23 -2 -33 -3 -15 -1 -23 -13 -30 -43 -6 -23 -17 -48
-23 -55 -7 -6 -14 -26 -14 -42 l-1 -31 -8 30 -8 30 0 -30 c-1 -34 16 -84 17
-52 1 9 6 17 12 17 7 0 5 -9 -4 -24 -9 -13 -13 -33 -10 -46 4 -15 2 -21 -4
-17 -6 4 -14 0 -17 -9 -8 -22 -9 -21 19 -21 22 0 25 4 25 37 0 21 4 40 9 42 5
2 13 16 17 32 5 21 4 27 -5 22 -13 -9 -14 13 -1 34 7 12 12 12 21 3 10 -10 15
-9 25 5 7 9 16 13 21 9 4 -5 -3 -18 -17 -29 -16 -14 -21 -22 -13 -25 9 -3 5
-15 -12 -37 -28 -37 -36 -77 -10 -56 8 7 15 21 15 32 0 10 5 16 10 13 6 -3 7
-17 4 -30 -3 -13 0 -33 6 -45 14 -26 11 -30 -28 -35 -41 -5 -94 -33 -87 -45 4
-6 1 -10 -4 -10 -6 0 -11 -4 -11 -10 0 -18 18 -11 25 9 4 13 12 18 22 14 9 -3
19 0 24 9 5 9 19 14 35 12 32 -3 42 -13 25 -23 -7 -5 -10 -14 -6 -20 5 -9 10
-9 20 -1 17 14 35 5 35 -17 0 -9 -6 -13 -15 -9 -16 6 -23 -3 -28 -41 -2 -12
-6 -26 -10 -29 -4 -4 -7 -18 -7 -31 0 -20 -4 -23 -22 -18 -13 3 -18 3 -12 -2
6 -4 14 -16 17 -27 6 -14 10 -16 21 -7 17 15 22 8 31 -46 10 -64 23 -52 21 20
-1 55 -3 63 -18 59 -28 -7 -21 17 7 28 15 6 25 17 25 30 0 11 5 20 10 20 6 0
10 -4 10 -10 0 -5 7 -10 15 -10 8 0 15 5 15 10 0 6 7 10 15 10 13 0 14 -4 4
-22 -9 -16 -9 -23 0 -26 6 -2 11 -8 11 -13 0 -6 -5 -7 -10 -4 -6 3 -10 1 -10
-4 0 -6 4 -11 9 -11 5 0 13 -10 17 -22 3 -13 13 -31 22 -41 19 -21 11 -31 -18
-22 -17 5 -19 10 -9 21 9 11 7 14 -10 14 -24 0 -26 -12 -9 -40 18 -28 1 -37
-22 -13 -13 15 -16 23 -7 26 9 4 9 7 0 18 -18 18 -23 8 -28 -47 -4 -45 -3 -47
10 -30 15 20 15 20 29 1 12 -16 18 -18 37 -9 29 14 100 13 96 -1 -1 -5 -22
-10 -47 -9 -25 0 -37 -1 -27 -3 22 -6 22 -27 0 -49 -17 -17 -18 -17 -21 3 -2
13 -15 24 -39 31 -21 6 -39 9 -41 7 -7 -7 23 -33 43 -36 25 -5 31 -27 9 -36
-18 -7 -54 -39 -54 -48 0 -16 43 -1 63 21 l22 26 17 -39 c19 -44 13 -55 -34
-57 -23 -1 -34 -7 -36 -20 -3 -14 1 -17 17 -11 17 5 21 2 21 -14 0 -14 5 -19
15 -15 17 7 105 -16 105 -27 0 -4 -7 -9 -15 -13 -18 -7 -19 -35 -1 -58 16 -22
26 -23 26 -3 0 7 -8 19 -17 24 -27 15 -9 13 21 -3 23 -12 24 -15 11 -26 -8 -7
-15 -19 -15 -27 0 -11 -10 -14 -37 -11 -23 2 -38 -2 -41 -10 -3 -11 9 -13 59
-9 35 2 65 9 67 15 2 7 -1 12 -6 12 -5 0 -7 11 -4 25 4 22 22 36 22 18 0 -5 4
-24 9 -44 11 -47 0 -69 -24 -46 -9 10 -24 17 -32 17 -14 0 -14 -2 0 -18 10
-10 17 -24 17 -31 0 -7 5 -9 10 -6 12 8 13 -15 1 -34 -7 -11 -15 -11 -41 -2
-43 15 -51 14 -44 -4 4 -8 1 -15 -5 -15 -22 0 -11 -20 12 -20 17 -1 14 -5 -18
-21 -22 -11 -47 -21 -55 -23 -31 -6 -130 -58 -130 -68 0 -39 181 -407 283
-575 176 -290 317 -472 542 -701 303 -310 651 -569 994 -742 89 -44 92 -41 34
36 -12 17 -23 37 -23 43 0 7 -9 26 -21 42 -13 19 -18 36 -13 47 6 14 8 15 11
2 2 -9 13 -22 25 -29 20 -12 24 -11 48 16 37 45 66 50 95 19 29 -32 55 -35 48
-6 -6 21 20 29 32 10 8 -13 45 -13 45 0 0 6 -9 30 -20 52 -11 23 -20 48 -20
57 0 8 -7 22 -16 32 -9 10 -18 36 -21 58 -3 23 -10 41 -14 41 -5 0 -9 6 -9 14
0 34 -222 105 -240 76 -6 -10 -14 -9 -33 7 l-25 19 27 24 c20 18 23 24 12 28
-8 3 -17 0 -19 -7 -2 -6 -8 -11 -13 -11 -6 0 -5 9 2 22 12 22 14 22 -36 2 -21
-9 -19 13 3 25 15 9 13 10 -9 11 -23 0 -27 4 -26 28 1 15 5 30 10 33 8 5 -14
16 -66 33 -10 3 -15 10 -12 16 4 6 -5 10 -19 10 -14 0 -28 5 -31 10 -9 15 11
12 68 -11 127 -51 166 -64 185 -61 6 2 12 -2 12 -8 0 -5 3 -9 8 -8 4 1 25 -4
47 -10 22 -6 72 -11 111 -11 38 0 82 -5 97 -10 18 -7 36 -7 53 -1 14 6 41 10
60 10 30 0 34 3 36 28 0 15 0 34 -1 42 -1 8 -3 27 -3 43 -1 15 -5 27 -9 27 -5
0 -11 16 -15 36 -5 27 -10 34 -23 29 -9 -4 -21 -9 -28 -12 -8 -3 -10 3 -6 18
l6 23 -31 -23 c-32 -22 -32 -22 -32 -2 0 12 -4 21 -10 21 -5 0 -10 -7 -10 -15
0 -13 -4 -14 -21 -4 -15 8 -24 8 -32 0 -8 -8 -5 -11 9 -11 12 0 24 -3 28 -8 4
-4 13 -7 19 -7 7 0 11 -8 9 -18 -2 -9 4 -20 13 -23 8 -3 15 -14 15 -24 0 -10
8 -21 18 -23 10 -3 6 -5 -10 -6 -16 0 -28 2 -28 7 -1 20 -50 64 -76 67 -15 1
-30 8 -32 14 -2 6 -12 11 -22 11 -10 0 -20 7 -24 15 -3 8 -12 12 -20 9 -8 -3
-17 0 -21 6 -4 6 -15 8 -25 5 -13 -4 -20 0 -25 14 -4 13 -12 17 -25 14 -11 -3
-20 0 -20 6 0 6 -7 11 -16 11 -11 0 -13 6 -9 19 7 23 -11 37 -29 22 -16 -14
-102 10 -137 38 -13 10 -33 20 -44 22 -24 5 -28 38 -8 65 10 14 16 16 21 7 6
-9 12 -6 21 9 11 18 11 20 -4 15 -9 -4 -14 -3 -10 3 4 6 -1 17 -10 26 -15 15
-14 18 17 37 31 18 38 19 98 7 36 -7 72 -17 80 -21 50 -25 98 -42 121 -43 15
-1 27 -5 26 -10 -2 -8 103 -51 223 -91 78 -26 280 -129 311 -158 14 -13 49
-64 77 -113 49 -82 192 -253 192 -228 0 5 -9 20 -19 31 -19 20 -19 21 1 43 21
22 21 23 3 36 -17 13 -17 14 -2 14 9 0 17 4 17 10 0 5 4 9 9 7 5 -1 8 1 8 4
-1 3 4 13 10 21 7 8 10 18 6 21 -15 15 -8 63 11 83 12 11 27 30 35 41 14 21
40 35 70 37 8 1 16 7 19 15 3 10 0 12 -11 8 -26 -10 -44 31 -23 51 9 9 16 11
16 5 0 -6 -6 -13 -12 -16 -7 -2 -10 -7 -6 -11 3 -4 18 0 31 9 21 14 25 23 22
55 -2 27 1 40 11 44 12 5 14 1 8 -16 -6 -20 -5 -21 10 -9 9 7 16 10 16 6 0 -3
12 3 26 14 25 20 54 28 54 15 0 -3 -10 -14 -22 -25 l-23 -19 31 6 c23 4 33 2
37 -10 4 -10 1 -19 -9 -23 -8 -3 -26 -22 -39 -42 -14 -19 -25 -30 -25 -23 0
22 -19 13 -26 -13 -3 -14 -10 -22 -15 -19 -5 3 -9 -6 -9 -20 0 -17 -5 -26 -16
-26 -13 0 -15 -7 -10 -34 5 -24 3 -35 -7 -39 -8 -3 -17 -23 -21 -46 -4 -30
-15 -47 -42 -67 -26 -20 -32 -29 -22 -36 10 -7 9 -11 -4 -19 -10 -5 -18 -19
-18 -29 0 -24 17 -27 22 -3 2 9 13 17 26 18 26 2 30 -13 5 -22 -9 -4 -25 -15
-35 -25 -10 -10 -25 -18 -33 -18 -8 0 -15 -4 -15 -10 0 -5 7 -10 15 -10 8 0
15 -5 15 -11 0 -5 -4 -8 -9 -5 -5 4 -11 0 -14 -6 -3 -9 -10 -7 -21 7 -25 33
-18 4 16 -60 30 -57 130 -214 169 -263 10 -13 30 -55 44 -93 22 -58 43 -87
112 -162 l86 -91 -8 -65 c-13 -112 -12 -125 8 -129 11 -2 31 7 45 21 21 19 34
24 60 20 22 -4 32 -10 28 -19 -5 -14 11 -30 21 -21 6 7 -37 146 -48 153 -13 8
-11 -8 6 -56 18 -50 18 -50 6 -50 -9 0 -53 121 -46 129 3 2 5 -1 5 -7 0 -7 5
-12 11 -12 6 0 8 7 5 16 -10 27 14 4 42 -39 14 -23 25 -45 24 -49 -1 -4 5 -25
13 -47 10 -30 11 -41 2 -45 -18 -7 366 -7 402 0 24 5 31 12 31 29 0 12 10 35
22 51 16 19 18 26 7 22 -12 -5 -14 0 -11 23 2 16 7 27 11 25 3 -2 7 16 8 41 1
25 7 51 13 58 7 9 6 16 -4 24 -12 10 -12 16 -2 36 7 14 11 53 10 94 -3 71 2
81 24 59 8 -8 12 -8 12 -1 0 6 -7 14 -16 17 -14 5 -15 17 -8 89 5 45 9 107 9
139 0 31 3 54 8 51 9 -5 9 -5 -2 35 -7 21 -6 32 1 32 6 0 8 9 5 20 -3 11 -1
23 4 26 6 4 6 11 -1 19 -12 14 -6 66 13 122 8 24 7 35 -2 46 -7 9 -8 18 -3 21
5 3 10 26 10 51 1 27 8 52 17 61 17 17 20 28 6 19 -5 -3 -12 -1 -16 5 -3 6 1
13 9 16 20 8 21 34 1 34 -25 0 -17 18 13 28 15 6 20 11 10 11 -21 1 -27 20
-16 50 4 13 10 38 13 55 2 17 8 53 14 81 6 33 6 54 -1 62 -6 8 -6 19 2 33 7
12 9 33 6 46 -4 15 -2 24 5 24 9 0 9 4 0 14 -9 11 -8 15 5 20 12 4 14 13 9 36
-4 19 -3 30 4 30 6 0 8 12 5 30 -5 24 -3 30 10 30 14 0 16 9 12 59 -4 46 -2
60 9 65 8 3 15 14 15 24 0 10 9 27 20 37 11 10 20 13 20 7 0 -6 -8 -16 -17
-21 -13 -8 -15 -13 -6 -19 8 -5 9 -19 3 -47 -6 -27 -5 -50 6 -79 17 -51 17
-59 0 -53 -10 4 -13 -4 -11 -31 1 -21 3 -49 4 -64 0 -15 8 -33 16 -42 19 -19
19 -37 1 -30 -8 3 -19 -3 -26 -15 -9 -18 -8 -21 10 -21 11 0 21 -6 22 -12 0
-7 2 -17 2 -23 3 -19 24 -50 31 -44 3 4 2 25 -3 47 -8 33 -7 39 5 35 8 -3 12
-11 9 -19 -3 -7 1 -18 9 -24 18 -15 -3 -60 -29 -60 -13 0 -17 -5 -13 -19 4
-15 1 -18 -12 -14 -9 3 -21 10 -28 15 -7 5 -14 5 -18 -2 -3 -5 1 -10 9 -10 9
0 16 -4 16 -9 0 -5 13 -12 29 -16 23 -5 27 -10 23 -30 -3 -16 -9 -22 -21 -19
-9 3 -5 -2 9 -11 l25 -16 -28 4 c-30 5 -47 -10 -23 -19 9 -3 16 -10 16 -16 0
-5 7 -16 15 -24 8 -9 15 -23 15 -31 0 -14 -2 -15 -17 -1 -18 16 -43 14 -43 -3
0 -5 8 -9 18 -9 14 0 12 -4 -8 -20 -14 -11 -19 -20 -11 -20 11 0 11 -3 1 -15
-6 -8 -9 -19 -5 -25 11 -18 36 10 29 33 -4 14 -3 17 6 12 6 -4 9 -17 6 -28 -3
-12 -1 -26 4 -32 6 -8 -2 -23 -25 -45 -39 -38 -45 -60 -16 -60 35 0 32 -18 -5
-25 -25 -4 -34 -10 -30 -21 3 -9 -1 -14 -13 -14 -10 0 -22 -7 -25 -16 -10 -25
1 -29 23 -10 30 27 45 9 16 -20 -13 -13 -29 -24 -35 -24 -5 0 -10 -4 -10 -10
0 -5 7 -10 15 -10 18 0 20 -17 3 -22 -8 -3 -6 -12 6 -29 9 -14 13 -29 9 -33
-12 -11 -12 -40 -1 -47 6 -4 2 -10 -11 -14 -16 -5 -20 -12 -15 -27 4 -13 1
-24 -7 -29 -10 -6 -8 -9 9 -9 25 0 26 -3 12 -30 -7 -14 -6 -23 4 -32 17 -17 2
-54 -26 -61 -25 -7 -14 -27 13 -27 19 0 19 -1 5 -16 -21 -20 -20 -31 2 -43 15
-9 14 -11 -8 -12 -20 -1 -21 -2 -6 -6 11 -3 25 -11 33 -18 10 -11 10 -14 -3
-19 -9 -3 -14 -13 -11 -20 3 -8 1 -17 -6 -20 -9 -3 -8 -8 3 -15 13 -9 13 -11
-1 -11 -9 0 -20 -7 -23 -16 -9 -22 -8 -23 14 -17 11 3 20 0 20 -6 0 -6 -8 -11
-19 -11 -12 0 -20 -9 -24 -27 -6 -34 -2 -40 18 -23 18 15 19 2 3 -37 -7 -16
-19 -28 -25 -26 -19 7 -15 -15 5 -26 9 -6 13 -11 8 -11 -5 0 -3 -7 4 -15 10
-12 9 -16 -4 -21 -9 -3 -16 -15 -16 -25 0 -10 -6 -19 -14 -19 -7 0 -20 -7 -27
-16 -12 -15 -11 -16 11 -9 14 4 28 12 31 18 7 10 29 1 29 -12 0 -5 -19 -18
-42 -29 -53 -26 -35 -27 92 -6 52 8 108 17 123 19 44 7 50 14 43 53 -4 26 0
45 16 70 17 28 19 38 10 53 -16 24 -15 52 1 68 10 11 9 13 -5 8 -12 -4 -18 -1
-18 7 0 16 21 26 58 27 l27 1 -30 9 c-20 6 -31 5 -37 -4 -5 -8 -9 -5 -14 8 -4
11 -9 24 -12 29 -3 5 4 7 16 4 26 -7 34 26 14 60 -17 26 -10 29 13 6 9 -9 19
-14 22 -10 3 3 -4 14 -15 25 -19 16 -20 20 -7 31 16 13 20 47 7 67 -4 6 -20
13 -35 15 -15 1 -26 8 -25 13 4 12 48 7 66 -8 10 -8 16 -7 23 4 13 22 11 36
-8 44 -16 6 -15 8 7 20 19 11 21 14 8 15 -14 0 -16 6 -11 33 3 17 10 35 16 38
5 4 10 26 11 50 1 45 10 69 26 69 5 0 11 -8 13 -18 2 -9 3 -4 1 13 -3 16 -10
33 -17 37 -6 5 8 5 33 2 25 -4 52 -13 60 -21 13 -13 13 -14 0 -13 -28 4 -40 0
-40 -14 0 -17 30 -30 31 -13 0 7 4 3 8 -8 6 -13 4 -23 -5 -28 -8 -4 -14 -15
-14 -23 0 -9 5 -12 12 -8 8 5 9 2 5 -9 -4 -10 -2 -17 5 -17 7 0 6 -5 -2 -15
-10 -13 -9 -15 9 -15 18 0 20 -3 11 -19 -5 -11 -9 -39 -9 -63 1 -24 3 -34 6
-23 9 37 20 36 26 -1 5 -27 2 -43 -9 -55 -15 -17 -10 -49 8 -49 6 0 8 -12 5
-30 -6 -25 -3 -30 13 -30 14 0 20 -6 19 -22 -1 -17 -3 -18 -6 -6 -6 23 -33 11
-33 -14 0 -15 5 -18 20 -13 11 4 20 2 20 -4 0 -6 -4 -11 -9 -11 -5 0 -11 -8
-15 -18 -3 -9 -9 -23 -12 -31 -5 -10 -2 -12 9 -8 22 8 28 -3 11 -20 -8 -8 -21
-12 -29 -9 -22 8 -29 -14 -9 -29 18 -13 18 -15 1 -44 -18 -31 -18 -31 3 -31
20 0 20 -1 4 -25 -9 -14 -14 -28 -10 -32 3 -3 6 -2 6 4 0 14 38 24 43 10 2 -6
15 -6 40 2 34 12 42 21 38 45 -1 4 4 14 10 22 8 10 8 14 0 14 -6 0 -11 7 -11
16 0 8 4 12 10 9 7 -4 7 2 1 19 -8 18 -6 26 5 30 19 7 18 26 -2 26 -8 0 -13 4
-10 9 4 5 0 12 -6 15 -9 3 -8 9 6 20 15 12 17 18 7 30 -7 8 -10 24 -6 35 3 11
0 29 -7 41 -11 18 -11 23 2 33 16 12 16 47 0 47 -10 0 -30 56 -30 85 0 12 -9
34 -21 49 -18 23 -18 27 -5 32 22 8 20 26 -1 22 -19 -3 -24 24 -12 52 5 10 -1
24 -16 38 -15 14 -21 29 -18 42 3 13 0 20 -8 20 -9 1 -8 4 4 11 22 13 14 45
-16 71 -17 15 -18 18 -4 18 10 0 17 7 17 15 0 8 -9 15 -20 15 -10 0 -24 9 -30
20 -6 12 -7 20 -1 20 5 0 11 -6 14 -12 2 -7 8 -10 12 -5 5 4 3 13 -3 19 -16
16 -15 28 3 28 20 0 19 6 -5 30 -12 12 -25 18 -30 15 -6 -4 -10 -1 -10 4 0 6
3 11 8 11 4 0 13 9 19 19 10 16 9 26 -3 51 -15 29 -15 32 2 44 15 12 15 14 2
22 -10 6 -15 23 -15 49 1 56 -14 144 -25 151 -5 3 -3 11 5 17 12 10 13 24 7
69 -4 31 -5 73 0 92 5 22 4 36 -2 36 -5 0 -6 6 -1 13 13 20 12 35 -3 41 -20 8
-18 66 4 82 16 13 16 15 -1 28 -15 11 -15 15 -3 19 19 7 10 44 -13 50 -11 3
-9 5 6 6 12 0 25 5 28 11 3 5 0 7 -9 4 -12 -5 -15 2 -12 33 6 63 19 49 74 -77
20 -47 28 -150 11 -150 -18 0 -9 -22 11 -27 18 -5 19 -8 7 -22 -16 -20 -20
-58 -5 -67 6 -4 5 -9 -3 -15 -11 -6 -11 -11 -2 -20 9 -9 8 -17 -4 -36 -11 -16
-13 -27 -6 -31 18 -12 25 -49 10 -55 -12 -4 -13 -14 -4 -51 6 -25 14 -46 19
-46 5 0 7 -4 3 -9 -3 -5 -1 -12 5 -16 15 -9 12 -28 -3 -22 -10 4 -13 -2 -9
-21 3 -15 9 -30 14 -33 13 -8 19 -117 7 -125 -5 -3 -5 -13 1 -24 5 -10 10 -32
10 -49 0 -16 5 -31 11 -33 16 -5 21 -58 6 -58 -9 0 -8 -3 1 -8 7 -5 11 -19 10
-33 -2 -18 1 -23 14 -21 12 2 17 -3 16 -15 -2 -10 1 -37 6 -60 6 -32 11 -40
24 -36 9 4 7 -2 -8 -17 -21 -21 -22 -24 -7 -35 10 -7 17 -22 17 -34 0 -11 6
-21 13 -21 25 0 34 20 27 63 -3 23 -3 57 1 76 4 18 2 47 -4 64 -7 20 -7 32 0
34 5 2 8 37 7 79 -2 67 0 77 16 81 10 3 21 11 24 18 3 9 -2 11 -15 8 -23 -6
-23 -5 -2 38 l17 34 11 -65 c11 -67 3 -102 -27 -121 -9 -6 -7 -9 8 -9 24 0 26
-22 24 -210 -1 -36 -5 -67 -10 -70 -5 -3 -6 -19 -1 -35 4 -17 4 -45 -1 -63 -5
-18 -6 -37 -3 -43 4 -5 2 -15 -3 -22 -13 -15 -18 -99 -8 -116 5 -8 4 -16 -4
-21 -7 -4 -12 -36 -13 -81 -1 -41 -6 -80 -10 -86 -5 -7 -5 -17 -2 -23 3 -5 1
-10 -4 -10 -6 0 -11 -16 -11 -35 l0 -35 66 24 c75 28 84 34 64 46 -11 7 -11
11 -1 24 25 30 47 18 42 -22 -5 -32 362 138 599 278 115 68 283 186 415 291
76 60 142 106 148 102 5 -3 7 -2 4 4 -3 5 14 30 39 54 l45 44 -2 225 c0 124
-5 374 -10 555 -15 577 -38 1550 -44 1855 -3 162 -7 383 -10 490 -3 107 -7
321 -10 475 -5 266 -13 612 -35 1575 -5 234 -12 506 -16 605 -7 200 0 181 -87
246 l-27 21 5 -54 c3 -29 9 -271 15 -538 5 -267 12 -557 15 -645 7 -241 14
-522 20 -800 3 -137 10 -437 15 -665 5 -228 12 -536 15 -685 3 -148 8 -322 10
-385 9 -236 18 -1078 11 -1096 -6 -15 -17 -7 -74 54 -51 54 -74 72 -94 72 -18
0 -34 10 -50 31 -56 75 -75 89 -118 89 -22 0 -57 8 -78 19 -20 10 -56 25 -80
32 -24 7 -49 20 -55 29 -19 26 -52 40 -95 40 -32 0 -47 7 -74 32 -18 18 -55
49 -82 68 -27 19 -72 52 -100 72 -28 20 -129 76 -224 124 -116 59 -180 97
-193 116 -16 22 -28 28 -59 28 -31 0 -43 6 -59 28 -12 17 -50 42 -93 62 -40
18 -74 37 -76 42 -2 4 -10 8 -18 8 -8 0 -14 5 -14 10 0 6 5 10 10 10 6 0 13 7
16 15 4 8 19 29 34 45 17 18 26 37 23 48 -2 10 3 24 11 31 9 8 16 22 16 32 0
11 5 19 10 19 6 0 10 5 10 10 0 6 18 37 40 69 22 32 40 63 40 70 0 6 14 33 31
61 17 27 32 63 34 79 2 17 8 39 14 49 7 13 7 22 -2 31 -8 8 -3 10 21 7 27 -3
33 0 38 20 4 14 4 33 1 44 -3 11 -1 20 5 20 6 0 8 10 5 21 -4 17 -3 19 6 10
19 -19 29 -12 23 15 -4 14 -3 31 2 37 5 7 12 34 16 61 3 27 13 63 21 79 8 17
15 40 15 51 -1 12 -18 -12 -42 -59 -22 -44 -61 -111 -87 -149 -25 -38 -56 -84
-69 -102 -12 -19 -31 -40 -42 -46 -11 -7 -20 -18 -20 -25 0 -7 -6 -13 -12 -13
-17 -1 -68 -46 -68 -60 0 -5 -7 -10 -15 -10 -8 0 -15 -7 -15 -15 0 -9 -11 -20
-25 -25 -17 -6 -25 -17 -25 -33 0 -28 -38 -119 -54 -129 -6 -4 -7 -10 -3 -14
4 -4 0 -18 -8 -31 -9 -13 -13 -27 -10 -32 15 -25 -62 -140 -84 -126 -14 8 -12
33 8 165 30 189 29 178 7 209 -12 17 -28 32 -36 35 -45 16 -70 42 -63 65 4 14
3 14 -6 1 -9 -13 -12 -12 -24 4 -8 11 -19 16 -25 12 -7 -4 -22 10 -38 33 -14
23 -30 38 -35 35 -5 -3 -9 0 -9 7 0 6 -10 20 -22 31 -20 17 -32 19 -88 14 -57
-6 -63 -5 -47 7 18 15 24 33 8 22 -6 -3 -26 28 -46 69 -20 42 -39 78 -43 80
-9 6 -8 48 1 63 4 6 5 18 2 26 -4 8 10 41 30 73 60 99 88 155 84 170 -4 12 22
126 32 139 6 9 15 41 49 177 7 27 26 62 47 84 33 36 34 41 27 88 -3 28 -15 62
-25 75 -11 13 -19 29 -19 35 0 6 -27 19 -60 30 -32 10 -60 22 -62 26 -2 5 -10
10 -18 12 -8 2 -23 11 -34 21 -11 9 -27 17 -35 17 -22 1 -49 23 -44 37 2 6 -5
14 -16 18 -12 3 -21 11 -21 17 0 5 -9 17 -19 26 -18 16 -37 101 -23 103 4 0
20 2 36 3 16 1 31 7 34 14 2 7 9 12 16 12 7 0 23 18 36 40 14 22 30 40 37 40
18 0 26 19 13 35 -7 9 -8 15 0 20 12 7 14 45 2 45 -14 0 -12 119 2 127 7 5 20
28 29 53 24 65 100 103 135 68 9 -9 18 -9 37 0 17 8 25 8 25 1 0 -6 9 -24 21
-40 20 -28 21 -28 46 -12 17 11 28 14 30 7 2 -6 19 -10 38 -8 30 2 34 -1 40
-27 6 -25 10 -29 28 -23 12 3 26 10 32 15 14 13 25 11 25 -6 0 -8 5 -15 10
-15 9 0 14 14 11 33 -1 10 31 9 48 -2 11 -7 10 -17 -4 -62 -10 -30 -26 -67
-37 -84 -21 -36 -22 -45 -5 -45 8 0 20 18 27 41 8 23 20 43 26 46 7 3 18 38
25 79 6 41 15 74 20 74 4 0 11 -27 15 -60 4 -33 10 -60 14 -60 6 0 25 51 34
95 2 11 4 5 5 -14 0 -19 -4 -50 -11 -68 -8 -23 -9 -36 -1 -44 12 -12 47 99 45
146 0 17 2 24 4 18 3 -7 14 -13 25 -13 12 0 16 -5 13 -14 -3 -8 -1 -17 4 -20
6 -3 8 -15 5 -26 -4 -15 -11 -19 -25 -14 -15 4 -19 2 -16 -7 3 -8 15 -13 28
-11 15 1 24 -4 27 -18 3 -13 14 -20 28 -20 30 0 39 -27 20 -56 -17 -26 -20
-54 -5 -54 5 0 14 8 20 18 9 14 10 13 4 -8 -3 -14 -13 -38 -21 -55 -63 -125
-75 -169 -80 -287 -4 -72 -2 -118 4 -118 5 0 10 32 11 72 0 39 5 74 9 77 4 3
8 11 8 16 1 23 17 75 24 75 3 0 8 -61 9 -135 3 -115 1 -135 -12 -135 -8 0 -18
5 -21 10 -9 15 -25 12 -25 -5 0 -12 -8 -15 -32 -11 -56 9 -72 9 -92 1 -12 -5
-21 -3 -27 6 -8 12 -10 12 -18 0 -7 -11 -9 -11 -14 0 -4 9 -8 10 -14 4 -4 -5
-24 -12 -43 -13 -19 -2 -40 -8 -47 -14 -7 -5 -17 -7 -22 -4 -5 4 -13 0 -18 -7
-4 -8 -18 -19 -29 -25 -12 -6 -27 -25 -34 -42 -9 -23 -15 -28 -21 -18 -6 9 -9
7 -9 -8 0 -12 7 -24 15 -28 19 -7 20 -26 0 -26 -8 0 -12 -6 -9 -15 3 -8 2 -20
-2 -27 -5 -7 -16 -33 -25 -58 -9 -25 -19 -53 -24 -63 -5 -13 -4 -16 9 -11 11
4 16 1 16 -10 0 -9 6 -19 14 -22 8 -3 17 -17 21 -32 9 -35 38 -58 82 -67 21
-4 54 -15 75 -26 38 -20 94 -26 83 -10 -3 5 5 11 17 13 16 2 24 11 28 33 3 17
9 25 12 19 4 -6 21 -9 37 -6 17 2 29 8 26 12 -7 11 31 20 82 20 23 0 44 4 48
9 3 6 19 8 36 6 47 -6 95 35 57 47 -9 3 -9 6 0 12 7 4 12 2 12 -3 0 -6 4 -11
8 -11 5 0 7 15 5 32 -3 23 -2 29 5 19 13 -18 32 -5 32 21 0 14 5 18 15 14 9
-3 21 4 32 20 14 22 14 27 2 35 -11 7 -11 9 -1 9 7 0 11 4 7 9 -3 5 -1 12 4
15 5 3 12 -1 15 -10 11 -27 7 -54 -9 -60 -8 -4 -15 -12 -15 -20 0 -7 6 -11 13
-8 11 4 11 -19 -4 -123 -21 -154 -45 -285 -60 -331 -6 -18 -8 -36 -5 -40 4 -3
9 4 13 16 3 12 9 22 13 22 4 0 15 24 24 53 31 95 54 137 73 131 17 -5 17 -5 1
6 -26 16 -22 34 14 61 17 13 46 36 65 51 34 27 63 28 63 2 0 -7 -6 -17 -14
-21 -7 -4 -26 -24 -42 -43 -32 -38 -20 -33 44 18 23 19 42 30 42 24 0 -6 -5
-14 -10 -17 -6 -4 -8 -11 -4 -16 3 -6 -3 -19 -15 -30 -27 -25 -27 -43 -1 -27
20 13 50 71 60 118 3 13 16 30 28 36 15 7 19 13 11 16 -23 8 1 27 27 22 19 -4
33 2 52 23 14 15 27 23 29 17 3 -8 15 -8 41 2 20 7 47 13 58 14 12 0 30 8 41
18 10 9 14 14 9 10 -20 -16 -28 -7 -11 12 10 11 21 18 24 15 12 -7 25 8 50 55
14 25 33 56 42 70 10 14 28 66 40 115 12 50 25 97 30 107 5 11 3 18 -6 22 -16
6 -10 36 7 36 6 0 8 -7 4 -15 -3 -8 -1 -15 4 -15 9 0 15 50 12 93 -1 9 3 17 8
17 6 0 10 5 10 11 0 6 -6 9 -14 6 -16 -7 -19 3 -37 133 -9 63 -9 85 0 88 6 2
8 14 5 28 -4 17 -2 24 8 24 35 0 91 81 67 96 -5 3 -9 13 -9 23 0 10 -12 45
-27 77 -14 33 -26 63 -25 67 2 5 -6 20 -16 35 -10 15 -26 46 -36 68 -15 35
-16 45 -5 62 11 17 11 28 1 55 -14 39 -16 77 -3 77 15 0 22 33 9 43 -9 6 -6 7
7 2 11 -4 28 -10 38 -12 20 -6 87 36 87 55 0 8 -14 2 -37 -15 -34 -26 -35 -26
-24 -5 12 22 11 22 -30 16 -37 -6 -41 -5 -30 7 16 17 61 21 79 7 8 -7 12 -7
12 1 0 6 -12 16 -27 22 -48 19 -58 26 -58 40 0 8 -5 14 -11 14 -16 0 -48 36
-38 43 18 14 15 45 -7 65 -14 14 -18 22 -10 25 9 3 9 7 0 19 -10 11 -10 16 0
23 8 4 10 13 7 19 -4 6 -2 11 3 11 6 0 11 10 11 22 0 12 9 41 20 63 11 23 23
66 26 95 4 44 2 52 -11 47 -8 -4 -15 -1 -15 6 0 7 -10 17 -22 22 -13 6 -24 16
-24 23 -1 6 -2 14 -3 16 0 2 -19 0 -41 -4 -22 -4 -43 -4 -45 1 -3 4 -19 10
-35 14 -17 4 -30 12 -30 20 0 7 -11 15 -23 19 -13 3 -41 19 -62 36 -24 19 -42
27 -49 21 -6 -5 -21 -12 -33 -15 -17 -6 -23 -3 -23 8 0 9 8 16 18 17 9 1 -19
8 -63 16 -44 8 -82 18 -83 24 -3 6 -9 6 -17 -1 -10 -9 -16 -6 -25 9 -6 12 -17
21 -24 21 -19 0 -16 31 6 60 21 27 8 41 -17 20 -12 -10 -18 -10 -30 0 -8 6
-19 9 -25 5 -5 -3 -10 1 -10 9 0 9 5 16 11 16 5 0 7 5 4 10 -9 14 -21 12 -39
-5 -9 -9 -17 -11 -21 -5 -3 5 -2 10 3 10 16 0 21 38 7 50 -10 8 -14 7 -18 -2
-4 -10 -8 -10 -16 2 -9 13 -12 12 -26 -5 -15 -19 -16 -19 -10 11 5 24 2 33
-10 38 -22 8 -42 -4 -24 -15 7 -4 10 -11 6 -16 -4 -4 -17 -2 -28 5 -10 7 -30
9 -44 6 -20 -5 -24 -3 -19 9 3 9 12 13 22 10 12 -5 14 -2 9 11 -4 10 -7 22 -7
27 0 6 -6 7 -12 2 -18 -11 -117 -10 -110 1 3 5 -5 6 -19 2 -13 -4 -30 -7 -36
-7 -34 2 -43 5 -43 13 0 5 -19 6 -42 3 -121 -16 -157 -9 -142 29 3 9 1 16 -5
16 -6 0 -11 5 -11 11 0 6 9 9 20 6 11 -3 18 -1 15 3 -3 5 2 10 12 12 21 4 -90
74 -132 83 -69 15 -118 41 -163 88 -9 9 -20 17 -25 17 -18 0 -96 55 -99 70 -3
11 -5 12 -11 3z m-680 -2917 c21 -8 63 -17 94 -19 50 -5 128 -31 169 -57 8 -6
25 -14 38 -20 22 -10 33 -60 12 -60 -5 0 -10 -10 -10 -23 0 -12 -7 -33 -16
-45 -8 -12 -12 -22 -8 -22 3 0 1 -7 -6 -15 -6 -8 -9 -18 -6 -23 3 -5 -2 -24
-11 -43 -15 -29 -17 -31 -24 -13 -7 17 -8 17 -8 -5 -1 -13 -9 -31 -19 -40 -10
-9 -21 -24 -25 -33 -3 -10 -13 -18 -22 -18 -8 0 -15 -6 -15 -14 0 -9 -17 -16
-45 -20 -39 -6 -49 -4 -80 20 -19 14 -35 34 -36 43 0 12 -2 12 -8 -3 -5 -14
-10 -16 -15 -7 -5 7 -5 15 -2 18 3 3 -1 15 -9 27 -8 11 -15 28 -15 38 0 10 -7
18 -15 18 -8 0 -15 7 -15 15 0 8 -6 24 -12 35 -11 17 -10 22 1 29 11 7 11 10
-3 12 -11 3 -25 24 -36 54 -9 28 -22 49 -27 48 -10 -2 -13 101 -3 110 35 30
117 36 177 13z m752 -1168 c15 -9 26 -9 44 -1 13 6 28 8 34 5 6 -4 16 -38 22
-76 10 -59 10 -73 -4 -102 -9 -19 -13 -39 -10 -44 3 -5 -2 -22 -12 -37 -20
-31 -43 -57 -43 -49 0 3 -9 -3 -20 -14 -11 -11 -20 -22 -20 -25 0 -2 -11 -15
-25 -29 -14 -14 -25 -32 -25 -40 0 -12 -5 -14 -26 -6 -33 13 -34 13 -34 -5 0
-8 -5 -15 -11 -15 -7 0 -9 11 -6 30 5 23 1 33 -19 49 -14 11 -30 22 -37 24 -7
2 -8 8 -3 13 5 5 11 4 13 -4 9 -24 21 -1 14 26 -9 30 3 66 31 97 28 33 13 61
-51 91 -31 15 -62 26 -68 25 -7 -1 -13 3 -13 9 0 6 -16 18 -36 26 -35 14 -36
17 -20 32 11 11 19 13 24 7 8 -12 64 -15 72 -4 3 4 32 10 65 14 33 3 61 8 64
11 9 9 82 3 100 -8z m424 -365 c8 -16 15 -49 16 -74 2 -70 -66 -274 -99 -294
-6 -4 -8 -10 -6 -14 5 -7 -68 -128 -96 -161 -7 -8 -18 -27 -25 -42 -7 -16 -19
-31 -28 -34 -8 -3 -15 -13 -15 -21 0 -8 -19 -35 -42 -59 -23 -24 -43 -54 -45
-66 -2 -12 -9 -27 -15 -33 -8 -7 -9 -5 -5 8 4 9 2 17 -4 17 -5 0 -13 -8 -16
-17 -4 -10 -12 -22 -20 -26 -7 -4 -13 -14 -13 -22 0 -8 -14 -31 -32 -50 -24
-28 -36 -35 -55 -30 -13 3 -23 1 -23 -5 0 -6 5 -8 11 -4 7 4 10 1 7 -7 -3 -8
-12 -13 -21 -13 -9 1 -15 -2 -12 -6 7 -11 -56 -50 -171 -108 -114 -57 -198
-87 -215 -76 -7 4 -9 3 -6 -3 9 -14 -127 -41 -250 -48 -105 -7 -293 10 -293
26 0 5 5 9 11 9 7 0 0 11 -14 24 -14 13 -23 27 -20 30 4 3 -1 14 -10 24 -13
15 -16 41 -14 164 1 102 6 151 15 160 6 6 12 19 12 28 0 25 62 76 101 84 79
16 99 18 99 9 0 -6 11 -15 25 -21 19 -9 25 -19 25 -45 0 -18 7 -43 16 -56 14
-19 15 -36 9 -95 -11 -101 -8 -167 9 -178 7 -5 13 3 16 19 3 14 12 27 21 29
10 1 26 11 38 23 12 12 24 21 29 21 7 0 25 30 38 63 3 9 11 17 18 17 6 0 17
15 25 33 8 17 18 34 22 37 16 11 19 101 4 130 -16 32 -21 130 -6 130 5 0 11
-6 14 -12 7 -20 30 6 25 28 -3 13 -11 18 -27 16 -16 -1 -24 4 -28 18 -3 11 -9
17 -14 14 -5 -3 -6 3 -2 12 4 11 8 13 11 6 2 -7 8 -12 14 -12 6 0 8 6 5 13 -3
8 4 14 19 15 13 1 24 -3 24 -9 0 -7 11 -8 30 -4 26 6 29 4 25 -14 -2 -14 1
-21 11 -21 8 0 12 5 9 10 -3 6 4 10 17 10 13 0 29 5 36 12 8 8 15 8 25 0 12
-11 62 0 94 21 6 4 13 3 15 -3 3 -10 54 5 94 27 12 7 24 10 27 6 4 -3 13 -1
20 5 8 7 17 9 20 5 7 -7 57 16 68 30 3 5 19 10 35 12 15 1 30 8 32 14 2 6 24
20 48 31 24 11 44 26 44 33 1 19 49 49 71 44 14 -4 19 -1 16 8 -5 12 51 75 68
75 4 0 15 7 24 15 9 8 30 26 46 41 20 17 26 27 17 31 -9 3 -4 15 15 38 16 19
31 34 35 34 4 1 14 -11 21 -26z m-546 -1240 c-4 -3 -2 -12 4 -19 10 -12 0 -47
-32 -106 -10 -20 1 -24 19 -6 9 9 12 9 12 0 0 -7 5 -12 10 -12 14 0 12 28 -2
33 -7 2 1 4 19 4 41 0 48 -19 17 -48 -19 -17 -27 -20 -36 -11 -21 21 -26 13
-22 -34 4 -39 2 -46 -16 -51 -11 -3 -17 -10 -14 -15 4 -6 0 -14 -7 -19 -11 -7
-9 -9 8 -9 16 0 20 -5 16 -20 -3 -11 -12 -20 -19 -20 -8 0 -14 -8 -14 -18 0
-10 -6 -27 -14 -38 -9 -11 -12 -29 -9 -44 6 -24 6 -25 -14 -7 -28 25 -35 67
-16 90 15 16 14 17 -5 17 -12 0 -22 5 -22 10 0 6 12 10 27 10 20 0 24 3 16 11
-7 7 -8 21 -2 41 4 17 6 35 3 40 -6 10 24 48 38 48 4 0 8 -7 8 -16 0 -10 -6
-14 -15 -11 -18 8 -27 -6 -19 -28 6 -16 8 -16 16 -1 5 9 16 16 23 16 16 0 21
35 6 44 -14 9 -22 68 -11 82 6 7 13 25 16 40 5 27 21 54 32 54 3 0 2 -3 -1 -7z
m998 -284 c9 -26 15 -51 14 -55 -1 -5 0 -16 4 -24 5 -13 19 -110 22 -150 1 -8
4 -35 8 -60 33 -226 40 -392 27 -615 -5 -93 -12 -186 -16 -205 -3 -19 -7 -44
-9 -55 -2 -11 -4 -22 -6 -25 -1 -3 -3 -11 -3 -17 -2 -20 -21 -10 -20 9 0 10
-2 18 -6 18 -9 0 1 59 11 66 5 3 4 14 -2 26 -8 15 -8 22 1 28 7 4 10 14 8 21
-3 8 1 29 8 47 8 20 9 30 3 26 -8 -5 -9 7 -3 37 15 88 7 460 -12 490 -2 4 0
10 6 14 6 4 7 11 4 17 -4 6 -8 27 -10 47 -7 68 -12 98 -20 122 -4 13 -7 33 -5
43 2 14 -2 17 -13 13 -10 -4 -16 -1 -16 9 0 8 6 17 14 20 12 5 12 11 -4 37
-15 23 -16 33 -7 39 9 6 9 12 0 28 -16 24 -16 33 -2 24 15 -9 2 53 -17 83 -8
12 -14 28 -14 35 0 22 39 -44 55 -93z m-1335 -49 c8 -5 11 -10 5 -10 -5 0 -3
-5 5 -10 9 -6 14 -21 12 -45 -2 -20 1 -35 7 -35 6 0 11 -5 11 -11 0 -6 -9 -8
-22 -3 -19 6 -21 5 -11 -8 11 -12 9 -14 -10 -14 -14 1 -22 -5 -22 -16 0 -10
-9 -24 -19 -31 -25 -18 -12 -41 14 -27 29 16 29 12 -2 -23 -26 -29 -33 -32
-75 -28 -26 2 -40 6 -33 11 8 5 9 10 2 14 -23 14 33 83 85 105 18 7 34 22 37
36 7 26 -1 55 -15 55 -4 0 -6 7 -3 15 4 9 0 15 -7 15 -11 0 -11 3 1 10 8 5 17
10 20 10 3 0 12 -5 20 -10z m-105 -360 c5 -8 11 -7 21 1 22 18 29 2 9 -21 -20
-22 -41 -26 -47 -9 -2 7 -16 1 -33 -15 -27 -25 -30 -50 -3 -29 18 15 87 23 93
12 4 -5 -8 -9 -24 -9 -17 0 -31 -4 -31 -10 0 -5 7 -10 16 -10 10 0 14 -7 12
-22 -2 -13 -9 -22 -16 -20 -6 1 -12 -5 -12 -13 0 -11 -8 -13 -30 -8 -31 6 -43
-10 -14 -21 8 -3 13 -10 9 -15 -3 -6 -12 -8 -20 -4 -8 3 -15 0 -15 -7 0 -8 11
-11 30 -8 17 3 30 1 30 -3 0 -4 3 -14 6 -23 4 -10 1 -16 -8 -16 -8 0 -23 -9
-33 -20 -10 -11 -24 -20 -32 -20 -8 0 -12 -4 -9 -9 3 -5 16 -7 29 -3 21 5 21
4 5 -15 -13 -14 -15 -22 -7 -30 6 -6 8 -16 4 -22 -3 -7 -8 -39 -10 -72 -5 -69
-7 -75 -35 -82 -14 -4 -20 0 -20 11 -1 15 -2 15 -11 0 -14 -25 -33 -23 -20 1
9 16 8 18 -8 14 -10 -3 -21 2 -24 10 -4 11 0 13 15 9 17 -4 20 -2 15 11 -4 10
-2 17 3 17 15 0 12 38 -2 43 -8 3 -3 9 12 15 17 6 27 6 32 -2 5 -8 11 -7 20 2
10 10 10 14 -2 22 -8 5 -18 6 -22 4 -12 -8 -9 11 4 24 9 9 7 12 -11 12 -16 0
-21 5 -18 14 3 7 0 19 -6 25 -8 8 -8 11 2 11 8 0 11 6 7 16 -3 9 0 24 8 35 13
19 14 19 32 2 16 -17 16 -18 1 -21 -10 -2 -15 -8 -11 -13 4 -6 11 -6 20 2 16
13 19 36 5 41 -6 2 -7 22 -4 45 3 26 10 40 16 36 6 -3 7 -1 3 5 -4 6 -13 9
-21 5 -19 -7 -19 7 1 35 9 13 13 31 9 43 -6 18 -4 20 14 14 15 -5 19 -3 16 8
-4 8 4 18 17 25 30 14 35 14 43 2z m1682 -209 c14 -53 2 -119 -30 -166 -15
-22 -27 -47 -27 -55 0 -9 -4 -20 -8 -25 -5 -6 -19 -45 -32 -87 -15 -46 -28
-74 -33 -69 -6 6 -3 23 7 42 9 18 16 42 16 55 0 13 5 26 11 29 6 4 8 13 5 20
-5 14 8 74 24 110 4 11 9 27 9 35 0 35 9 71 21 85 10 12 10 15 -1 15 -10 0
-10 3 -2 11 6 6 9 18 6 25 -3 8 1 14 10 14 9 0 19 -16 24 -39z"/>
<path d="M7310 6153 c0 -71 7 -292 15 -493 21 -513 33 -968 40 -1450 3 -228 8
-476 10 -550 2 -74 7 -304 11 -510 3 -206 8 -386 10 -400 3 -14 5 -101 5 -195
l-1 -170 26 50 27 49 -7 356 c-3 195 -8 423 -11 505 -3 83 -7 294 -10 470 -7
401 -21 1098 -36 1805 l-12 545 -29 58 c-15 31 -30 57 -33 57 -3 0 -5 -57 -5
-127z"/>
<path d="M910 2047 c0 -21 7 -38 20 -47 11 -8 20 -21 20 -30 0 -9 9 -22 20
-30 11 -8 20 -21 20 -28 0 -8 14 -27 30 -42 17 -15 30 -33 30 -40 0 -6 18 -29
40 -50 22 -21 40 -45 40 -52 0 -7 9 -20 20 -28 11 -8 20 -20 20 -28 0 -7 27
-40 60 -72 33 -32 60 -64 60 -70 0 -13 247 -260 260 -260 6 0 42 -31 80 -70
38 -38 74 -70 80 -70 6 0 29 -18 50 -40 21 -22 45 -40 52 -40 7 0 20 -9 28
-20 8 -11 21 -20 28 -20 7 0 31 -18 52 -40 21 -22 45 -40 52 -40 7 0 20 -9 28
-20 8 -11 22 -20 32 -20 10 0 18 -4 18 -10 0 -5 8 -10 18 -10 10 0 24 -9 32
-20 8 -11 21 -20 30 -20 9 0 22 -9 30 -20 8 -11 22 -20 32 -20 10 0 18 -4 18
-10 0 -5 9 -10 20 -10 11 0 20 -4 20 -10 0 -5 9 -10 20 -10 11 0 20 -4 20 -10
0 -5 9 -10 20 -10 11 0 20 -4 20 -10 0 -5 9 -10 20 -10 11 0 20 -4 20 -10 0
-5 8 -10 18 -10 10 0 24 -9 32 -20 14 -19 70 -29 70 -12 0 4 -30 23 -67 41
-339 167 -684 422 -984 728 -167 170 -382 435 -488 601 -18 28 -35 52 -37 52
-2 0 -4 -15 -4 -33z"/>
</g>
</svg>
